<?xml version="1.0" encoding="utf-8"?>
<!-- Generator: Adobe Illustrator 25.2.0, SVG Export Plug-In . SVG Version: 6.00 Build 0)  -->
<svg version="1.1" id="Layer_1" xmlns="http://www.w3.org/2000/svg" xmlns:xlink="http://www.w3.org/1999/xlink" x="0px" y="0px"
	 viewBox="0 0 24 24" style="enable-background:new 0 0 24 24;" xml:space="preserve">
<style type="text/css">
	.st0{fill:none;stroke:#000000;stroke-width:2;stroke-linecap:round;stroke-linejoin:round;}
</style>
<path class="st0" d="M5.6,9.5V8.4C5.6,4.9,8.5,2,12,2c3.5,0,6.4,2.9,6.4,6.4v1.1c0,2.3,0.7,4.6,1.9,6.5L21,17H3l0.7-1.1
	C4.9,14,5.6,11.8,5.6,9.5z"/>
<path class="st0" d="M12,21.3L12,21.3"/>
<path d="M4.3,16.2l8.1,0.2l7.2-0.1L19,15l-1-5.5L17.4,6l-2.8-2.8l-3.5-0.8L9.1,2.7L7.5,4.3c0,0-0.9,1.5-1,1.6
	C6.5,6.1,5.8,7.7,5.8,7.9c0,0.2-0.1,1.8-0.1,1.9c0,0.1-0.3,2-0.4,2.3S5,13.4,4.9,13.5c-0.1,0.1-0.3,1.2-0.3,1.3
	C4.6,14.9,4.3,16.2,4.3,16.2z"/>
<circle cx="11.9" cy="21.3" r="1.9"/>
</svg>
