<?xml version="1.0" encoding="utf-8"?>
<!-- Generator: Adobe Illustrator 25.2.0, SVG Export Plug-In . SVG Version: 6.00 Build 0)  -->
<svg version="1.1" id="Layer_2_1_" xmlns="http://www.w3.org/2000/svg" xmlns:xlink="http://www.w3.org/1999/xlink" x="0px" y="0px"
	 viewBox="0 0 7.7 7.7" style="enable-background:new 0 0 7.7 7.7;" xml:space="preserve">
<path d="M0.3,0.3L0.3,0.3c-0.4,0.4-0.4,1,0,1.4c0,0,0,0,0,0l2.1,2.1L0.3,5.9c-0.4,0.4-0.4,1,0,1.4c0,0,0,0,0,0l0,0
	c0.4,0.4,1,0.4,1.4,0c0,0,0,0,0,0l2.1-2.1l2.1,2.1c0.4,0.4,1,0.4,1.4,0c0,0,0,0,0,0l0,0c0.4-0.4,0.4-1,0-1.4c0,0,0,0,0,0L5.2,3.8
	l2.1-2.1c0.4-0.4,0.4-1,0-1.4c0,0,0,0,0,0l0,0C7-0.1,6.3-0.1,6,0.3c0,0,0,0,0,0L3.8,2.4L1.7,0.3C1.3-0.1,0.7-0.1,0.3,0.3
	C0.3,0.3,0.3,0.3,0.3,0.3z"/>
</svg>
