<?xml version="1.0" encoding="utf-8"?>
<!-- Generator: Adobe Illustrator 25.2.0, SVG Export Plug-In . SVG Version: 6.00 Build 0)  -->
<svg version="1.1" id="Layer_1" xmlns="http://www.w3.org/2000/svg" xmlns:xlink="http://www.w3.org/1999/xlink" x="0px" y="0px"
	 viewBox="0 0 120.6 122.9" style="enable-background:new 0 0 120.6 122.9;" xml:space="preserve">
<path d="M92.5,14c1.6-1.6,2.3-3.7,2.3-5.8c0-2.1-0.8-4.2-2.4-5.8l-0.1-0.1C90.6,0.7,88.6,0,86.6,0c-2,0-4,0.8-5.6,2.4
	C63.4,20,45.9,38,28.4,55.8c-0.1,0.1-0.1,0.1-0.2,0.2c-1.6,1.6-2.3,3.8-2.3,5.9s0.8,4.2,2.4,5.8l0.3,0.3
	C46.1,85.4,63.5,103,81,120.5c1.5,1.5,3.5,2.3,5.5,2.4s4-0.7,5.6-2.2l0.2-0.2c1.6-1.6,2.4-3.7,2.4-5.8c0-2.1-0.7-4.2-2.3-5.8
	L45.3,61.6L92.5,14L92.5,14z"/>
</svg>
